# xmcd
#
# Track frame offsets: 
#        150
#        13528
#        34439
#        54122
#        68297
#        86886
#        100767
#        114756
#        133598
#        149611
#        162975
#        171647
#        188982
#
# Disc length: 2779 seconds
#
# Revision: 0
# Processed by: cddbd v1.5.2PL0 Copyright (c) Steve Scherf et al.
# Submitted via: ExactAudioCopy v1.0b4
#
DISCID=ae0ad90d
DTITLE=The Delta Saints - Death Letter Jubilee
DYEAR=2013
DGENRE=Blues
TTITLE0=Liar
TTITLE1=Chicago
TTITLE2=Death Letter Jubilee
TTITLE3=Jezebel
TTITLE4=Boogie
TTITLE5=Out to Sea
TTITLE6=Sing to Me
TTITLE7=Drink It Slow
TTITLE8=From the Dirt
TTITLE9=The Devil's Creek
TTITLE10=River
TTITLE11=Old Man
TTITLE12=Jericho
EXTD=
EXTT0=
EXTT1=
EXTT2=
EXTT3=
EXTT4=
EXTT5=
EXTT6=
EXTT7=
EXTT8=
EXTT9=
EXTT10=
EXTT11=
EXTT12=
PLAYORDER=
